<svg width="300" height="300" viewBox="0 0 300 300" fill="none" xmlns="http://www.w3.org/2000/svg">
<rect width="300" height="300" fill="white"/>
<path fill-rule="evenodd" clip-rule="evenodd" d="M47.5604 99.1201C57.0253 87.2698 86.4069 95.0015 113.185 116.39C134.357 133.299 147.561 153.683 147.486 167.334C148.016 179.555 138.303 193.414 122.569 201.177C103.222 210.721 82.0985 207.433 75.3885 193.832C70.713 184.354 74.2714 172.371 83.4041 162.746C81.9011 161.641 80.4008 160.494 78.91 159.304C52.1316 137.916 38.0959 110.971 47.5604 99.1201Z" fill="#020202"/>
<path fill-rule="evenodd" clip-rule="evenodd" d="M253.047 99.6196C243.582 87.7694 214.2 95.5019 187.422 116.89C166.225 133.82 153.014 154.231 153.121 167.882C152.619 180.092 162.327 193.925 178.04 201.677C197.387 211.222 218.51 207.933 225.221 194.333C229.897 184.854 226.339 172.87 217.205 163.245C218.707 162.14 220.207 160.994 221.697 159.804C248.476 138.416 262.512 111.47 253.047 99.6196Z" fill="#020202"/>
</svg>
